<svg preserveAspectRatio="xMidYMid meet" overflow="visible" style="display: block;" width="177.451" height="211.338" viewBox="0 0 177.451 211.338" fill="none" xmlns="http://www.w3.org/2000/svg">
<path id="Vector" d="M0 145.386H50.2839C54.292 161.419 68.1383 169.799 90.3653 169.799C112.592 169.799 125.345 162.147 125.345 149.759C125.345 139.192 117.329 133.726 95.4665 129.718L68.5027 124.617C24.4132 116.236 3.27938 96.5597 3.27938 64.1302C3.27938 26.2351 36.4376 0 84.1709 0C134.455 0 166.52 22.2269 172.714 61.9439H122.066C116.6 48.462 103.847 41.5389 84.1709 41.5389C67.4096 41.5389 55.3852 49.5552 55.3852 60.8508C55.3852 71.4177 64.1302 76.519 89.6365 81.2559L116.965 86.3571C157.41 94.009 177.451 113.321 177.451 145.022C177.451 185.832 143.929 211.338 90.3653 211.338C36.802 211.338 4.73689 187.654 0 145.386Z" fill="#393F43"/>
</svg>
