<svg preserveAspectRatio="xMidYMid meet" overflow="visible" style="display: block;" width="160" height="26" viewBox="0 0 160 26" fill="none" xmlns="http://www.w3.org/2000/svg">
<g id="Frame" clip-path="url(#clip0_0_17)">
<path id="Vector" d="M2.93255e-06 19.2929H4.99096C5.38879 20.8843 6.76311 21.7161 8.96926 21.7161C11.1754 21.7161 12.4412 20.9566 12.4412 19.7269C12.4412 18.6781 11.6456 18.1356 9.47559 17.7378L6.79928 17.2315C2.42315 16.3996 0.3255 14.4467 0.3255 11.2278C0.3255 7.46655 3.61664 4.86257 8.35443 4.86257C13.3454 4.86257 16.528 7.06872 17.1429 11.0108H12.1157C11.5732 9.67269 10.3074 8.98553 8.35443 8.98553C6.69078 8.98553 5.49729 9.78119 5.49729 10.9024C5.49729 11.9512 6.36528 12.4575 8.89693 12.9277L11.6094 13.434C15.6239 14.1935 17.613 16.1103 17.613 19.2568C17.613 23.3074 14.2857 25.8391 8.96926 25.8391C3.65281 25.8391 0.470166 23.4882 2.93255e-06 19.2929Z" fill="white"/>
<path id="Vector_2" d="M19.2767 17.991V0.160941H24.4123V5.3689H29.5118V9.99819H24.4123V17.7378C24.4123 19.9439 25.3526 20.7034 27.4141 20.7034H29.5118V25.3327H26.7631C21.6998 25.3327 19.2767 22.9819 19.2767 17.991Z" fill="white"/>
<path id="Vector_3" d="M30.1266 15.3508C30.1266 9.2387 34.4304 4.86257 40.3978 4.86257C43.1103 4.86257 45.3888 5.83906 46.8716 7.50271V5.3689H52.0072V25.3327H46.8716V23.1989C45.3888 24.8626 43.1103 25.8391 40.3978 25.8391C34.4304 25.8391 30.1266 21.4629 30.1266 15.3508ZM46.9078 15.3508C46.9078 11.9873 44.4846 9.5642 41.1212 9.5642C37.7577 9.5642 35.3345 11.9873 35.3345 15.3508C35.3345 18.7143 37.7939 21.1374 41.1212 21.1374C44.4485 21.1374 46.9078 18.6781 46.9078 15.3508Z" fill="white"/>
<path id="Vector_4" d="M54.4665 5.3689H59.6022V7.93671C60.868 6.12839 62.7848 5.22423 65.425 5.22423H66.4014V9.99819H64.991C61.3743 9.99819 59.6022 11.915 59.6022 15.8571V25.3327H54.4665V5.3689Z" fill="white"/>
<path id="Vector_5" d="M67.9928 17.991V0.160941H73.1284V5.3689H78.2278V9.99819H73.1284V17.7378C73.1284 19.9439 74.0687 20.7034 76.1302 20.7034H78.2278V25.3327H75.4792C70.4159 25.3327 67.9928 22.9819 67.9928 17.991Z" fill="white"/>
<path id="Vector_6" d="M78.8427 15.3146C78.8427 9.3472 83.255 4.86257 89.1139 4.86257C94.9729 4.86257 99.2405 9.09403 99.2405 14.8445C99.2405 15.4231 99.2043 16.1103 99.132 16.8336H83.9783C84.4846 19.5461 86.4014 21.2821 89.1139 21.2821C91.3562 21.2821 92.8029 20.5226 93.4901 18.9313H98.8788C97.5768 23.3436 93.9964 25.8391 88.9693 25.8391C83.038 25.8391 78.8427 21.4629 78.8427 15.3146ZM94.0687 12.9638C93.4901 10.7939 91.6456 9.41953 89.1139 9.41953C86.7631 9.41953 84.9548 10.7577 84.1953 12.9638H94.0687Z" fill="white"/>
<path id="Vector_7" d="M100.832 15.3146C100.832 9.31103 105.353 4.86257 111.573 4.86257C116.817 4.86257 120.651 8.08137 121.338 13H116.166C115.732 11.0108 113.779 9.5642 111.465 9.5642C108.282 9.5642 106.04 11.9512 106.04 15.3508C106.04 18.7505 108.282 21.1374 111.465 21.1374C113.779 21.1374 115.732 19.6908 116.166 17.7016H121.338C120.651 22.6564 116.854 25.8391 111.573 25.8391C105.353 25.8391 100.832 21.4268 100.832 15.3146Z" fill="white"/>
<path id="Vector_8" d="M122.998 0.160941H128.134V7.35805C129.472 5.80289 131.461 4.86257 133.74 4.86257C138.405 4.86257 141.443 8.11754 141.443 13.0723V25.3327H136.307V14.0488C136.307 11.1917 134.933 9.5642 132.51 9.5642C129.834 9.5642 128.134 11.5533 128.134 14.6998V25.3327H122.998V0.160941Z" fill="white"/>
<path id="Vector_9" d="M147.338 15.3508C147.338 11.8427 150.159 9.0217 153.667 9.0217C157.175 9.0217 159.996 11.8427 159.996 15.3508C159.996 18.859 157.175 21.6799 153.667 21.6799C150.159 21.6799 147.338 18.859 147.338 15.3508Z" fill="#FFD700"/>
</g>
<defs>
<clipPath id="clip0_0_17">
<rect width="160" height="26" fill="white"/>
</clipPath>
</defs>
</svg>
